<svg width="49" height="37" viewBox="0 0 49 37" fill="none" xmlns="http://www.w3.org/2000/svg">
<path fill-rule="evenodd" clip-rule="evenodd" d="M6.65663e-06 3.09385C6.81435e-06 1.38517 1.37113 -1.59337e-07 3.06251 0L45.9375 4.03907e-06C47.6289 4.19841e-06 49 1.38517 49 3.09386C49 4.80255 47.6289 6.18771 45.9375 6.18771L3.06251 6.18771C1.37113 6.18771 6.4989e-06 4.80254 6.65663e-06 3.09385Z" fill="#5092D2"/>
<path fill-rule="evenodd" clip-rule="evenodd" d="M7.60903e-06 18.5631C7.76745e-06 16.8544 1.37114 15.4693 3.06251 15.4693L45.9375 15.4693C47.6289 15.4693 49 16.8544 49 18.5631C49 20.2718 47.6289 21.657 45.9375 21.657L3.06251 21.657C1.37113 21.657 7.4506e-06 20.2718 7.60903e-06 18.5631Z" fill="#5092D2"/>
<path fill-rule="evenodd" clip-rule="evenodd" d="M0 33.9061C1.57722e-07 32.1974 1.37113 30.8123 3.0625 30.8123L45.9375 30.8123C47.6289 30.8123 49 32.1975 49 33.9061C49 35.6148 47.6289 37 45.9375 37L3.0625 37C1.37113 37 -1.57722e-07 35.6148 0 33.9061Z" fill="#5092D2"/>
<path fill-rule="evenodd" clip-rule="evenodd" d="M7.60903e-06 18.5631C7.76745e-06 16.8544 1.37114 15.4693 3.06251 15.4693L45.9375 15.4693C47.6289 15.4693 49 16.8544 49 18.5631C49 20.2718 47.6289 21.657 45.9375 21.657L3.06251 21.657C1.37113 21.657 7.4506e-06 20.2718 7.60903e-06 18.5631Z" fill="#5092D2"/>
</svg>
